<svg xmlns="http://www.w3.org/2000/svg" 
width="100" height="100" viewBox="0 0 1159 1159">
  <path id="Icon_awesome-pencil-alt" 
  data-name="Icon awesome-pencil-alt" 
  d="M1127.083,321.516l-104.36,104.359a27.189,27.189,0,0,
  1-38.484,0L732.959,174.6a27.189,27.189,0,0,1,0-38.484L837.319,
  31.755c42.333-42.332,111.152-42.332,153.711,0l136.053,136.052A108.485,
  108.485,0,0,1,1127.083,321.516ZM643.313,225.759,48.846,820.223.854,
  1095.27c-6.565,37.126,25.807,69.271,62.933,62.933l275.049-48.218L933.3,
  515.521a27.189,27.189,0,0,0,0-38.484L682.024,225.759a27.463,27.463,
  0,0,0-38.711,0ZM280.883,769.288a31.563,31.563,0,0,1,0-44.823L629.5,
  375.846a31.694,31.694,0,1,1,44.823,44.822L325.706,769.288A31.563,
  31.563,0,0,1,280.883,769.288ZM199.16,959.67H307.822v82.175l-146.014,
  25.58-70.4-70.4L116.985,851.01H199.16Z" 
  transform="translate(-0.002 -0.005)" fill="#fff"/>
</svg>
