<?xml version="1.0" standalone="no"?>
<!DOCTYPE svg PUBLIC "-//W3C//DTD SVG 20010904//EN"
 "http://www.w3.org/TR/2001/REC-SVG-20010904/DTD/svg10.dtd">
<svg version="1.0" xmlns="http://www.w3.org/2000/svg"
 width="30pt" height="30pt" viewBox="0 0 512.000000 512.000000"
 preserveAspectRatio="xMidYMid meet">

<g transform="translate(0.000000,512.000000) scale(0.100000,-0.100000)"
fill="#000000" stroke="none">
<path d="M2380 4794 c-539 -49 -1022 -274 -1401 -653 -408 -408 -633 -923
-656 -1501 -24 -604 199 -1189 619 -1626 349 -363 791 -592 1288 -670 176 -28
511 -25 690 5 568 96 1068 396 1418 849 572 743 614 1791 104 2572 -356 546
-910 906 -1547 1005 -97 15 -425 27 -515 19z m485 -339 c528 -92 957 -362
1267 -796 80 -111 205 -357 247 -485 248 -762 21 -1574 -584 -2082 -579 -486
-1385 -589 -2062 -263 -208 101 -367 214 -534 380 -177 177 -306 368 -403 594
-407 952 11 2048 949 2493 187 88 369 141 585 170 131 17 410 11 535 -11z"/>
<path d="M1689 3487 c-69 -47 -96 -121 -69 -194 6 -15 169 -187 363 -380 l352
-353 -352 -352 c-194 -194 -357 -366 -363 -381 -27 -73 0 -147 69 -194 37 -25
91 -30 138 -13 15 6 187 169 381 363 l352 352 353 -352 c193 -194 365 -357
380 -363 47 -17 101 -12 138 13 69 47 96 121 69 194 -6 15 -169 187 -363 381
l-352 352 352 353 c194 193 357 365 363 380 27 73 0 147 -69 194 -37 25 -91
30 -138 13 -15 -6 -187 -169 -380 -363 l-353 -352 -352 352 c-194 194 -366
357 -381 363 -47 17 -101 12 -138 -13z"/>
</g>
</svg>
