<?xml version="1.0" standalone="no"?>
<!DOCTYPE svg PUBLIC "-//W3C//DTD SVG 20010904//EN"
 "http://www.w3.org/TR/2001/REC-SVG-20010904/DTD/svg10.dtd">
<svg version="1.0" xmlns="http://www.w3.org/2000/svg"
 width="512.000000pt" height="512.000000pt" viewBox="0 0 512.000000 512.000000"
 preserveAspectRatio="xMidYMid meet">

<g transform="translate(0.000000,512.000000) scale(0.100000,-0.100000)"
fill="#000000" stroke="none">
<path d="M4058 5104 c-112 -27 -174 -68 -316 -208 l-133 -131 581 -580 580
-580 116 115 c185 182 234 277 234 449 0 98 -17 167 -63 256 -45 88 -544 587
-633 633 -113 59 -246 76 -366 46z"/>
<path d="M2050 3205 l-1405 -1405 580 -580 580 -580 1405 1405 1405 1405 -580
580 -580 580 -1405 -1405z"/>
<path d="M272 802 c-144 -433 -262 -790 -262 -794 0 -3 358 113 796 259 l796
265 -528 529 c-291 291 -531 529 -534 529 -3 0 -123 -354 -268 -788z"/>
</g>
</svg>
