<?xml version="1.0" standalone="no"?>
<!DOCTYPE svg PUBLIC "-//W3C//DTD SVG 20010904//EN"
 "http://www.w3.org/TR/2001/REC-SVG-20010904/DTD/svg10.dtd">
<svg version="1.0" xmlns="http://www.w3.org/2000/svg"
 width="512.000000pt" height="512.000000pt" viewBox="0 0 512.000000 512.000000"
 preserveAspectRatio="xMidYMid meet">

<g transform="translate(0.000000,512.000000) scale(0.100000,-0.100000)"
fill="#324290" stroke="none">
<path d="M139 4672 l-34 -30 -5 -539 c-8 -849 -6 -2666 3 -2684 18 -36 46 -38
589 -38 549 1 589 2 868 13 91 4 275 11 410 16 460 18 785 31 833 35 85 7 78
48 75 -467 l-3 -460 29 -25 c42 -35 96 -28 162 21 27 21 114 84 194 141 80 57
165 119 189 137 41 30 103 74 201 144 19 14 60 43 90 65 30 22 78 55 107 75
28 19 57 41 63 49 7 8 18 15 25 15 7 0 18 6 24 14 7 8 44 36 84 62 40 27 74
51 77 55 3 3 37 27 75 53 39 27 79 57 91 67 11 11 24 19 27 19 4 0 29 17 56
38 27 20 84 62 126 92 43 30 92 67 109 81 40 34 134 99 142 99 3 0 28 18 54
40 26 22 51 40 54 40 6 0 43 27 139 101 38 29 51 60 43 102 -7 36 -19 47 -151
142 -31 22 -78 57 -105 78 -27 20 -52 37 -55 37 -4 0 -40 27 -80 60 -40 33
-76 60 -80 60 -4 0 -40 26 -80 58 -40 31 -98 75 -129 97 -56 40 -125 90 -213
155 -26 19 -52 37 -58 39 -5 2 -30 21 -55 41 -25 20 -50 39 -55 41 -13 5 -88
59 -161 117 -29 23 -56 42 -59 42 -7 0 -129 94 -133 103 -2 4 -8 7 -13 7 -5 0
-34 19 -64 43 -29 23 -88 67 -129 97 -42 30 -100 73 -130 95 -30 22 -80 58
-110 80 -31 22 -76 55 -100 73 -50 37 -111 51 -145 33 -46 -25 -47 -45 -38
-653 5 -290 4 -318 -11 -322 -9 -3 -120 -8 -247 -11 -126 -3 -338 -13 -469
-20 -131 -8 -243 -12 -247 -9 -5 3 -124 -2 -266 -10 -142 -8 -307 -14 -368
-13 l-110 2 2 285 c1 157 3 647 3 1089 l2 804 -24 24 -24 24 -480 6 -480 6
-35 -31z m857 -155 c3 -2 4 -454 2 -1003 -3 -1238 -5 -1182 27 -1214 20 -20
35 -25 73 -25 84 1 403 13 612 24 113 6 320 15 460 21 140 6 343 15 450 20
107 6 237 10 287 10 88 0 94 1 125 29 l33 29 5 413 c3 282 8 413 16 416 6 2
27 -9 47 -24 20 -16 61 -46 92 -68 30 -22 92 -68 138 -102 115 -87 263 -197
363 -268 31 -22 63 -48 72 -57 9 -10 20 -18 25 -18 5 0 31 -18 57 -40 26 -22
52 -40 57 -40 6 0 18 -9 28 -20 10 -11 22 -20 28 -20 5 0 31 -18 57 -40 26
-22 51 -40 55 -40 3 0 30 -19 59 -42 29 -24 64 -50 76 -58 12 -8 46 -33 74
-56 28 -22 67 -51 86 -64 19 -13 58 -43 86 -67 28 -24 55 -43 59 -43 5 0 30
-18 56 -40 26 -22 51 -40 54 -40 4 0 25 -15 48 -34 23 -18 52 -39 65 -45 34
-18 27 -36 -30 -75 -90 -62 -151 -106 -190 -137 -20 -16 -40 -29 -43 -29 -4 0
-31 -19 -60 -43 -30 -23 -79 -60 -110 -82 -63 -45 -142 -103 -211 -155 -50
-37 -92 -67 -219 -156 -44 -30 -107 -75 -140 -100 -33 -24 -76 -55 -95 -68
-19 -14 -60 -43 -90 -65 -30 -22 -73 -52 -95 -67 -22 -16 -61 -45 -86 -66 -26
-21 -50 -38 -54 -38 -4 0 -29 -18 -55 -40 -26 -22 -51 -40 -54 -40 -6 0 -37
-22 -138 -100 -15 -11 -29 -16 -33 -11 -3 6 -5 194 -3 418 2 435 1 444 -47
460 -26 8 -234 5 -500 -7 -115 -5 -338 -14 -495 -20 -157 -6 -386 -15 -510
-21 -285 -13 -1211 -17 -1229 -5 -11 7 -12 247 -6 1475 4 806 9 1468 12 1471
11 12 139 16 411 14 162 -1 296 -4 298 -7z"/>
</g>
</svg>
