<?xml version="1.0" standalone="no"?>
<!DOCTYPE svg PUBLIC "-//W3C//DTD SVG 20010904//EN"
 "http://www.w3.org/TR/2001/REC-SVG-20010904/DTD/svg10.dtd">
<svg version="1.0" xmlns="http://www.w3.org/2000/svg"
 width="512.000000pt" height="512.000000pt" viewBox="0 0 512.000000 512.000000"
 preserveAspectRatio="xMidYMid meet">

<g transform="translate(0.000000,512.000000) scale(0.100000,-0.100000)"
fill="#324290" stroke="none">
<path d="M2418 4001 c-80 -26 -135 -61 -193 -122 -27 -30 -490 -495 -1027
-1034 -657 -659 -986 -996 -1006 -1030 -86 -148 -92 -296 -18 -451 43 -91 92
-145 175 -194 84 -49 157 -70 244 -70 112 0 200 32 297 109 25 20 410 401 857
848 447 447 814 813 817 813 3 0 376 -371 829 -824 540 -541 843 -836 881
-861 85 -54 155 -75 250 -75 186 0 336 92 416 253 73 148 76 271 9 420 -32 70
-55 95 -1063 1107 -567 569 -1049 1047 -1071 1063 -93 64 -276 86 -397 48z"/>
</g>
</svg>
